<?xml version="1.0" encoding="UTF-8" standalone="no"?>
<svg xmlns="http://www.w3.org/2000/svg" viewBox="0 0 24 24">
<defs>
  <style>.thin{fill:none;stroke:#000;stroke-linecap:round;stroke-linejoin:round;stroke-width:1px;}</style>
  <style>.medium{fill:none;stroke:#000;stroke-linecap:round;stroke-width:2px;}</style>
  <style>.thick{fill:none;stroke:#000;stroke-width:3px;}</style>
</defs>
<g>
<circle class="thin" cx="10" cy="14" r="9"/>
<line class="medium" x1="8" y1="2" x2="12" y2="2"/>
<line class="thick" x1="10" y1="1" x2="10" y2="5"/>
<line class="thin" x1="10" y1="5" x2="10" y2="7"/>
<line class="thin" x1="17" y1="14" x2="19" y2="14"/>
<line class="thin" x1="10" y1="21" x2="10" y2="23"/>
<line class="thin" x1="3" y1="14" x2="1" y2="14"/>
<circle class="thin" cx="10" cy="14" r="1"/>
<line class="thin" x1="10" y1="14" x2="14" y2="10"/>
<path class="thin" d="M 17.8 4.7 A 15 15 0 0 1 20.8 8.8"/>
<!--path class="thin" d="M 17 6 A 10 10 0 0 1 19.3 9"/-->
<!--path class="thin" d="M 20.5 14 A 11 11 0 0 1 19.7 18"/-->
<path class="thin" d="M 22 14 A 13 12 0 0 1 21.2 18.4"/>
</g>
</svg>